<svg width="100" height="100" viewBox="0 0 100 100" xmlns="http://www.w3.org/2000/svg">
    <defs>
        <!-- Grid Patterns -->
        <pattern id="smallGrid" width="10" height="10" patternUnits="userSpaceOnUse">
            <path d="M 10 0 L 0 0 0 10" fill="none" stroke="currentColor" stroke-width="0.5" opacity="0.1"/>
        </pattern>
        <pattern id="grid" width="100" height="100" patternUnits="userSpaceOnUse">
            <rect width="100" height="100" fill="url(#smallGrid)"/>
            <path d="M 100 0 L 0 0 0 100" fill="none" stroke="currentColor" stroke-width="1" opacity="0.15"/>
        </pattern>
        
        <!-- Gradient -->
        <linearGradient id="glow" x1="0%" y1="0%" x2="100%" y2="100%">
            <stop offset="0%" style="stop-color:#00D4FF;stop-opacity:0.1"/>
            <stop offset="100%" style="stop-color:#7B61FF;stop-opacity:0.1"/>
        </linearGradient>
        
        <!-- Filters -->
        <filter id="blur">
            <feGaussianBlur stdDeviation="1" result="blur"/>
            <feComposite in="SourceGraphic" in2="blur" operator="arithmetic" k2="1" k3="-0.5"/>
        </filter>
    </defs>
    
    <!-- Base Grid -->
    <rect width="100" height="100" fill="url(#grid)"/>
    
    <!-- Decorative Elements -->
    <circle cx="50" cy="50" r="40" fill="none" stroke="url(#glow)" stroke-width="1" filter="url(#blur)"/>
    <circle cx="50" cy="50" r="30" fill="none" stroke="url(#glow)" stroke-width="1" filter="url(#blur)"/>
    <circle cx="50" cy="50" r="20" fill="none" stroke="url(#glow)" stroke-width="1" filter="url(#blur)"/>
    
    <!-- Diagonal Lines -->
    <line x1="0" y1="0" x2="100" y2="100" stroke="currentColor" stroke-width="0.5" opacity="0.1"/>
    <line x1="100" y1="0" x2="0" y2="100" stroke="currentColor" stroke-width="0.5" opacity="0.1"/>
    
    <!-- Corner Accents -->
    <path d="M 10 0 Q 0 0 0 10" fill="none" stroke="url(#glow)" stroke-width="1"/>
    <path d="M 90 0 Q 100 0 100 10" fill="none" stroke="url(#glow)" stroke-width="1"/>
    <path d="M 0 90 Q 0 100 10 100" fill="none" stroke="url(#glow)" stroke-width="1"/>
    <path d="M 100 90 Q 100 100 90 100" fill="none" stroke="url(#glow)" stroke-width="1"/>
    
    <!-- Dots -->
    <g fill="currentColor" opacity="0.2">
        <circle cx="25" cy="25" r="1"/>
        <circle cx="75" cy="25" r="1"/>
        <circle cx="25" cy="75" r="1"/>
        <circle cx="75" cy="75" r="1"/>
        <circle cx="50" cy="50" r="1.5"/>
    </g>
</svg> 